<svg xmlns="http://www.w3.org/2000/svg" width="1400" height="900" viewBox="0 0 1400 900">
  <rect width="1400" height="900" fill="#f5f7fa"/>
  <text x="70" y="70" font-family="Arial" font-size="34" font-weight="bold" fill="#20242a">Diagrama do circuito - Cápsula Orion</text>
  <text x="70" y="108" font-family="Arial" font-size="19" fill="#59636e">Monitoramento de temperatura, luminosidade e vibração</text>

  <rect x="480" y="250" width="410" height="330" rx="20" fill="#1976d2" stroke="#0d47a1" stroke-width="5"/>
  <text x="685" y="320" text-anchor="middle" font-family="Arial" font-size="34" font-weight="bold" fill="white">ARDUINO UNO</text>
  <text x="685" y="365" text-anchor="middle" font-family="Arial" font-size="20" fill="#e3f2fd">Processamento e controle</text>
  <rect x="545" y="410" width="280" height="105" rx="10" fill="#e3f2fd"/>
  <text x="685" y="448" text-anchor="middle" font-family="Arial" font-size="18" fill="#0d47a1">A0 • D2 • D8 • D9</text>
  <text x="685" y="480" text-anchor="middle" font-family="Arial" font-size="18" fill="#0d47a1">D10 • D11 • A4/SDA</text>
  <text x="685" y="508" text-anchor="middle" font-family="Arial" font-size="18" fill="#0d47a1">A5/SCL • 5V • GND</text>

  <rect x="70" y="180" width="290" height="130" rx="16" fill="white" stroke="#e53935" stroke-width="4"/>
  <text x="215" y="225" text-anchor="middle" font-family="Arial" font-size="27" font-weight="bold" fill="#20242a">DHT22</text>
  <text x="215" y="262" text-anchor="middle" font-family="Arial" font-size="18" fill="#59636e">Temperatura • Pino D2</text>

  <rect x="70" y="385" width="290" height="130" rx="16" fill="white" stroke="#f9a825" stroke-width="4"/>
  <text x="215" y="430" text-anchor="middle" font-family="Arial" font-size="27" font-weight="bold" fill="#20242a">FOTORESISTOR</text>
  <text x="215" y="467" text-anchor="middle" font-family="Arial" font-size="18" fill="#59636e">Luminosidade • Pino A0</text>

  <rect x="70" y="590" width="290" height="130" rx="16" fill="white" stroke="#7e57c2" stroke-width="4"/>
  <text x="215" y="635" text-anchor="middle" font-family="Arial" font-size="27" font-weight="bold" fill="#20242a">MPU6050</text>
  <text x="215" y="672" text-anchor="middle" font-family="Arial" font-size="18" fill="#59636e">Vibração • I2C A4/A5</text>

  <rect x="1040" y="180" width="290" height="130" rx="16" fill="white" stroke="#00897b" stroke-width="4"/>
  <text x="1185" y="225" text-anchor="middle" font-family="Arial" font-size="27" font-weight="bold" fill="#20242a">LCD 16x2</text>
  <text x="1185" y="262" text-anchor="middle" font-family="Arial" font-size="18" fill="#59636e">Dados e estado • I2C</text>

  <rect x="1040" y="385" width="290" height="130" rx="16" fill="white" stroke="#43a047" stroke-width="4"/>
  <text x="1185" y="430" text-anchor="middle" font-family="Arial" font-size="27" font-weight="bold" fill="#20242a">3 LEDs</text>
  <circle cx="1120" cy="477" r="16" fill="#43a047"/>
  <circle cx="1185" cy="477" r="16" fill="#fdd835"/>
  <circle cx="1250" cy="477" r="16" fill="#e53935"/>

  <rect x="1040" y="590" width="290" height="130" rx="16" fill="white" stroke="#e53935" stroke-width="4"/>
  <text x="1185" y="635" text-anchor="middle" font-family="Arial" font-size="27" font-weight="bold" fill="#20242a">BUZZER</text>
  <text x="1185" y="672" text-anchor="middle" font-family="Arial" font-size="18" fill="#59636e">Alarme crítico • D11</text>

  <path d="M360 245 C420 245 420 330 480 330" fill="none" stroke="#e53935" stroke-width="6"/>
  <path d="M360 450 L480 450" fill="none" stroke="#f9a825" stroke-width="6"/>
  <path d="M360 655 C420 655 420 530 480 530" fill="none" stroke="#7e57c2" stroke-width="6"/>
  <path d="M890 330 C960 330 970 245 1040 245" fill="none" stroke="#00897b" stroke-width="6"/>
  <path d="M890 450 L1040 450" fill="none" stroke="#43a047" stroke-width="6"/>
  <path d="M890 530 C960 530 970 655 1040 655" fill="none" stroke="#e53935" stroke-width="6"/>

  <rect x="480" y="760" width="410" height="70" rx="14" fill="#20242a"/>
  <text x="685" y="804" text-anchor="middle" font-family="Arial" font-size="21" fill="white">Alimentação comum: 5V e GND</text>
</svg>
